<svg width="32" height="32" viewBox="0 0 32 32" fill="none" xmlns="http://www.w3.org/2000/svg">
<path fill-rule="evenodd" clip-rule="evenodd" d="M18.6667 4H13.3333C10.5044 4 7.79125 5.12381 5.79087 7.12419C3.79048 9.12458 2.66667 11.8377 2.66667 14.6667C2.66667 23.3333 12 27.3333 18.6667 30V25.3333C21.4956 25.3333 24.2088 24.2095 26.2091 22.2091C28.2095 20.2088 29.3333 17.4956 29.3333 14.6667C29.3333 11.8377 28.2095 9.12458 26.2091 7.12419C24.2088 5.12381 21.4956 4 18.6667 4ZM8.00017 15C8.00017 13.4 9.3335 13 10.0002 13C10.6668 13 12.0002 13.4 12.0002 15C12.0002 16.6 10.6668 17 10.0002 17C9.3335 17 8.00017 16.6 8.00017 15ZM16.0002 13C15.3335 13 14.0002 13.4 14.0002 15C14.0002 16.6 15.3335 17 16.0002 17C16.6668 17 18.0002 16.6 18.0002 15C18.0002 13.4 16.6668 13 16.0002 13ZM20.0002 15C20.0002 13.4 21.3335 13 22.0002 13C22.6668 13 24.0002 13.4 24.0002 15C24.0002 16.6 22.6668 17 22.0002 17C21.3335 17 20.0002 16.6 20.0002 15Z" fill="#109CF1"/>
</svg>
