<svg width="32" height="32" viewBox="0 0 32 32" fill="none" xmlns="http://www.w3.org/2000/svg">
<path d="M16.0001 2.6665C18.4755 2.6665 20.8494 3.64983 22.5998 5.40017C24.3501 7.15051 25.3334 9.52448 25.3334 11.9998H26.7654C27.1013 11.9998 27.4248 12.1266 27.6712 12.3547C27.9176 12.5829 28.0689 12.8957 28.0948 13.2305L29.2228 27.8972C29.25 28.2497 29.136 28.5987 28.906 28.8672C28.676 29.1358 28.3487 29.3019 27.9961 29.3292L27.8934 29.3332H4.10677C3.75315 29.3332 3.41401 29.1927 3.16396 28.9426C2.91391 28.6926 2.77344 28.3535 2.77344 27.9998L2.77744 27.8972L3.90544 13.2305C3.9313 12.8957 4.08257 12.5829 4.32901 12.3547C4.57546 12.1266 4.89893 11.9998 5.23477 11.9998H6.66677C6.66677 9.52448 7.6501 7.15051 9.40044 5.40017C11.1508 3.64983 13.5248 2.6665 16.0001 2.6665V2.6665ZM18.6668 17.3332H13.3334V19.9998H18.6668V17.3332ZM16.0001 5.33317C14.2822 5.33327 12.6306 5.99656 11.3897 7.18472C10.1489 8.37287 9.41466 9.99417 9.3401 11.7105L9.33344 11.9998H22.6668C22.6667 10.2819 22.0034 8.63029 20.8152 7.38947C19.6271 6.14865 18.0058 5.4144 16.2894 5.33984L16.0001 5.33317Z" fill="#109CF1"/>
</svg>
