<svg width="207" height="207" viewBox="0 0 207 207" fill="none" xmlns="http://www.w3.org/2000/svg">
<g clip-path="url(#clip0)">
<path d="M142.524 49.0953L132.111 50.7683L130.466 73.4254L121.697 52.4412L120.861 47.2346C119.472 38.5915 111.375 32.7354 102.731 34.124L87.1113 36.6335C84.1953 37.102 82.2727 39.7606 82.7412 42.6767L85.2506 58.2967L64.424 61.6426L61.9145 46.0226C61.446 43.1065 58.7874 41.184 55.8713 41.6524L40.2513 44.1619C31.6082 45.5505 25.7522 53.6483 27.1408 62.2914L47.2165 187.252C48.6051 195.894 56.7026 201.751 65.346 200.362L127.826 190.324C136.47 188.936 142.325 180.837 140.937 172.195L136.754 146.161L137.892 120.307L147.168 144.488L157.581 142.815L159.977 91.2406L142.524 49.0953Z" fill="url(#paint0_linear)"/>
<path d="M136.754 146.161L147.168 144.488L132.111 50.7679L121.697 52.4409L136.754 146.161ZM99.0099 77.4501L57.3566 84.142C54.4787 84.6043 52.524 87.3072 52.9864 90.1851L56.3324 111.012C56.7947 113.89 59.4976 115.844 62.3755 115.382L104.029 108.69C106.907 108.228 108.861 105.525 108.399 102.647L105.053 81.8202C104.591 78.9423 101.888 76.9877 99.0099 77.4501ZM88.2211 143.276C85.3457 143.738 83.389 146.444 83.851 149.319C84.3129 152.195 87.0187 154.151 89.8941 153.689C92.7696 153.227 94.7263 150.522 94.2643 147.646C93.8023 144.771 91.0966 142.814 88.2211 143.276ZM84.8752 122.449C81.9997 122.911 80.043 125.617 80.505 128.493C80.967 131.368 83.6727 133.325 86.5482 132.863C89.4236 132.401 91.3803 129.695 90.9183 126.82C90.4564 123.944 87.7507 121.987 84.8752 122.449ZM105.702 119.103C102.826 119.565 100.87 122.271 101.332 125.147C101.794 128.022 104.499 129.979 107.375 129.517C110.25 129.055 112.207 126.349 111.745 123.474C111.283 120.598 108.577 118.641 105.702 119.103ZM91.5671 164.103C88.6916 164.565 86.735 167.27 87.1969 170.146C87.6589 173.021 90.3646 174.978 93.2401 174.516C96.1156 174.054 98.0722 171.348 97.6103 168.473C97.1483 165.597 94.4426 163.641 91.5671 164.103ZM67.3945 146.622C64.519 147.084 62.5623 149.79 63.0243 152.665C63.4862 155.541 66.192 157.497 69.0674 157.035C71.9429 156.573 73.8996 153.868 73.4376 150.992C72.9757 148.117 70.2699 146.16 67.3945 146.622ZM64.0485 125.795C61.173 126.257 59.2164 128.963 59.6783 131.839C60.1403 134.714 62.846 136.671 65.7215 136.209C68.597 135.747 70.5536 133.041 70.0917 130.166C69.6297 127.29 66.924 125.333 64.0485 125.795ZM70.7404 167.449C67.865 167.911 65.9083 170.616 66.3702 173.492C66.8322 176.367 69.5379 178.324 72.4134 177.862C75.2889 177.4 77.2456 174.694 76.7836 171.819C76.3216 168.943 73.6159 166.987 70.7404 167.449ZM109.048 139.93C106.17 140.392 104.215 143.095 104.678 145.973L108.024 166.8C108.486 169.678 111.189 171.632 114.067 171.17C116.945 170.708 118.899 168.005 118.437 165.127L115.091 144.3C114.629 141.422 111.926 139.468 109.048 139.93ZM95.664 56.6234L89.697 19.4825C89.2347 16.6046 86.5318 14.6499 83.6539 15.1123L52.4138 20.1312C49.5359 20.5936 47.5813 23.2965 48.0436 26.1744L54.0106 63.3153C51.1327 63.7777 49.1781 66.4806 49.6404 69.3585C50.1028 72.2364 52.8057 74.191 55.6836 73.7286L97.337 67.0367C100.215 66.5744 102.169 63.8715 101.707 60.9936C101.245 58.1157 98.5419 56.161 95.664 56.6234ZM158.144 46.5855L142.524 49.095L157.581 142.815L173.201 140.306C176.117 139.837 178.039 137.178 177.571 134.262L164.187 50.9557C163.719 48.0396 161.06 46.117 158.144 46.5855Z" fill="url(#paint1_linear)"/>
</g>
<defs>
<linearGradient id="paint0_linear" x1="112.206" y1="192.834" x2="52.9182" y2="45.8775" gradientUnits="userSpaceOnUse">
<stop stop-color="#109CF1"/>
<stop offset="1" stop-color="#8FDFF8"/>
</linearGradient>
<linearGradient id="paint1_linear" x1="124.48" y1="169.497" x2="99.2739" y2="12.6028" gradientUnits="userSpaceOnUse">
<stop stop-color="#DAE3EA"/>
<stop offset="1" stop-color="#D3F2FC"/>
</linearGradient>
<clipPath id="clip0">
<rect width="180" height="180" fill="white" transform="translate(0 28.5522) rotate(-9.12701)"/>
</clipPath>
</defs>
</svg>
