<svg width="204" height="201" viewBox="0 0 204 201" fill="none" xmlns="http://www.w3.org/2000/svg">
<path d="M153.231 42.8922L126.874 38.5101L128.662 27.7593L34.6783 12.1338L12.1338 147.733L22.5379 149.463L18.1558 175.82C17.6778 178.695 19.6176 181.409 22.493 181.887L127.227 199.3C130.103 199.778 132.816 197.838 133.294 194.963L157.568 48.9591C158.046 46.0838 156.107 43.3702 153.231 42.8922Z" fill="url(#paint0_linear)"/>
<path d="M193.118 60.2153L172.31 56.7558C169.434 56.2778 166.721 58.2176 166.243 61.093L154.542 131.468C151.88 147.48 153.003 164.153 157.781 179.685C158.372 181.595 159.985 183.007 161.957 183.334C163.928 183.662 165.911 182.848 167.088 181.233C176.635 168.082 183.092 152.67 185.754 136.657L197.455 66.2822C197.933 63.4069 195.993 60.6934 193.118 60.2153ZM135.593 18.2201L31.2061 0.864879C28.3307 0.386832 25.6172 2.32669 25.1391 5.20203L0.864868 151.206C0.386819 154.081 2.32668 156.795 5.20202 157.273L109.589 174.628C112.465 175.106 115.178 173.166 115.656 170.291L139.931 24.287C140.409 21.4117 138.469 18.6982 135.593 18.2201ZM46.7672 35.8834L78.3262 41.1303C81.2016 41.6084 83.1414 44.3219 82.6634 47.1972C82.1853 50.0726 79.4718 52.0124 76.5965 51.5344L45.0375 46.2874C42.1622 45.8094 40.2223 43.0959 40.7003 40.2205C41.1784 37.3452 43.8919 35.4053 46.7672 35.8834ZM93.9706 139.956L31.1994 129.52C28.3241 129.042 26.3842 126.328 26.8623 123.453C27.3403 120.578 30.0538 118.638 32.9292 119.116L95.7004 129.552C98.5757 130.03 100.516 132.744 100.038 135.619C99.5595 138.494 96.8459 140.434 93.9706 139.956ZM97.4301 119.148L34.6589 108.712C31.7836 108.234 29.8437 105.52 30.3218 102.645C30.7998 99.7696 33.5134 97.8297 36.3887 98.3078L99.1599 108.744C102.035 109.222 103.975 111.936 103.497 114.811C103.019 117.686 100.305 119.626 97.4301 119.148ZM100.89 98.3399L38.1185 87.9037C35.2431 87.4256 33.3033 84.7121 33.7813 81.8368C34.2594 78.9614 36.9729 77.0216 39.8482 77.4996L102.619 87.9358C105.495 88.4139 107.435 91.1274 106.957 94.0028C106.478 96.8781 103.765 98.818 100.89 98.3399ZM104.349 77.5318L41.578 67.0956C38.7026 66.6175 36.7628 63.904 37.2408 61.0287C37.7189 58.1533 40.4324 56.2135 43.3077 56.6915L106.079 67.1277C108.954 67.6058 110.894 70.3193 110.416 73.1946C109.938 76.07 107.224 78.0098 104.349 77.5318Z" fill="url(#paint1_linear)"/>
<defs>
<linearGradient id="paint0_linear" x1="69.6581" y1="189.729" x2="97.4495" y2="22.57" gradientUnits="userSpaceOnUse">
<stop stop-color="#DAE3EA"/>
<stop offset="1" stop-color="#D3F2FC"/>
</linearGradient>
<linearGradient id="paint1_linear" x1="88.7813" y1="171.168" x2="89.6564" y2="10.3405" gradientUnits="userSpaceOnUse">
<stop stop-color="#109CF1"/>
<stop offset="1" stop-color="#8FDFF8"/>
<stop offset="1" stop-color="#00C2FF"/>
</linearGradient>
</defs>
</svg>
