<svg width="200" height="200" viewBox="0 0 200 200" fill="none" xmlns="http://www.w3.org/2000/svg">
<g clip-path="url(#clip0)">
<path d="M101.183 110.127C124.293 107.426 140.889 86.4326 138.19 63.328C135.49 40.2233 114.501 23.6214 91.391 26.3218C68.2811 29.0221 51.6851 50.0158 54.3848 73.1204C57.0846 96.2251 78.0736 112.827 101.183 110.127ZM167.528 129.629L41.1224 144.399C26.6776 146.087 16.3063 159.208 17.9935 173.648C19.6808 188.088 32.7979 198.465 47.2427 196.777L173.648 182.007C188.093 180.319 198.464 167.198 196.777 152.758C195.09 138.318 181.973 127.941 167.528 129.629Z" fill="url(#paint0_linear)"/>
<path d="M153.903 61.492C150.194 29.7506 121.296 6.89956 89.5549 10.6085C57.8135 14.3174 34.9625 43.2152 38.6714 74.9566C42.3803 106.697 71.2781 129.549 103.02 125.84C134.761 122.131 157.612 93.2327 153.903 61.492ZM119.075 81.4896C114.989 81.967 111.244 80.8114 108.122 78.6282C105.587 81.4729 102.209 83.4603 98.1233 83.9377C89.4286 84.9537 81.5897 78.7548 80.5738 70.0604C79.5579 61.3657 85.7564 53.5269 94.4511 52.5109L104.927 51.2868C107.86 50.9441 110.434 52.9791 110.777 55.9126L112.001 66.3882C112.343 69.321 114.917 71.3568 117.85 71.014C120.784 70.6712 122.819 68.097 122.476 65.1642C120.787 50.7078 107.683 40.3461 93.2271 42.0353C78.7707 43.7245 68.409 56.8281 70.0982 71.2845C71.7874 85.7408 84.891 96.1025 99.3474 94.4133C102.385 94.0584 105.257 93.1918 107.871 91.9308C110.472 90.5653 113.681 91.6762 114.942 94.2901C116.203 96.9035 115.197 100.101 112.583 101.362C108.761 103.189 104.762 104.399 100.571 104.889C80.3532 107.251 61.9847 92.7265 59.6223 72.5086C57.2598 52.2906 71.7851 33.9221 92.003 31.5597C112.221 29.1973 130.589 43.7222 132.952 63.9401C133.968 72.6345 127.769 80.4736 119.075 81.4896ZM91.0494 68.8363C91.3921 71.7692 93.9657 73.8049 96.8993 73.4621C99.8328 73.1193 101.868 70.5451 101.525 67.6123L100.913 62.3745L95.6752 62.9865C92.7417 63.3293 90.7066 65.9028 91.0494 68.8363ZM64.8709 162.862L54.3953 164.086C51.5002 164.424 49.4313 167.04 49.7695 169.935C50.1078 172.831 52.7243 174.899 55.6194 174.561L66.095 173.337C68.9901 172.999 71.059 170.382 70.7207 167.487C70.3825 164.592 67.766 162.523 64.8709 162.862ZM96.2977 159.189L85.8221 160.413C82.927 160.752 80.8581 163.368 81.1963 166.263C81.5346 169.158 84.1511 171.227 87.0462 170.889L97.5218 169.665C100.417 169.327 102.486 166.71 102.148 163.815C101.809 160.92 99.1928 158.851 96.2977 159.189ZM127.725 155.517L117.249 156.741C114.354 157.08 112.285 159.696 112.623 162.591C112.961 165.486 115.578 167.555 118.473 167.217L128.949 165.993C131.844 165.655 133.913 163.038 133.574 160.143C133.236 157.248 130.62 155.179 127.725 155.517ZM159.151 151.845L148.676 153.069C145.781 153.407 143.712 156.024 144.05 158.919C144.388 161.814 147.005 163.883 149.9 163.545L160.375 162.321C163.271 161.982 165.339 159.366 165.001 156.471C164.663 153.576 162.046 151.507 159.151 151.845Z" fill="url(#paint1_linear)"/>
</g>
<defs>
<linearGradient id="paint0_linear" x1="110.445" y1="189.392" x2="64.2751" y2="29.5414" gradientUnits="userSpaceOnUse">
<stop stop-color="#109CF1"/>
<stop offset="1" stop-color="#8FDFF8"/>
<stop offset="1" stop-color="#00C2FF"/>
</linearGradient>
<linearGradient id="paint1_linear" x1="107.997" y1="168.441" x2="89.5549" y2="10.6085" gradientUnits="userSpaceOnUse">
<stop stop-color="#DAE3EA"/>
<stop offset="1" stop-color="#D3F2FC"/>
</linearGradient>
<clipPath id="clip0">
<rect width="180" height="180" fill="white" transform="translate(0.163086 21.0537) rotate(-6.6647)"/>
</clipPath>
</defs>
</svg>
