<svg width="44" height="34" viewBox="0 0 44 34" fill="none" xmlns="http://www.w3.org/2000/svg">
<path d="M8.52918 33.1601V30.9543C8.52918 30.1088 8.01451 29.5573 7.1322 29.5573C6.69105 29.5573 6.21313 29.7044 5.88227 30.1823C5.62493 29.7779 5.2573 29.5573 4.70585 29.5573C4.33823 29.5573 3.9706 29.6676 3.6765 30.072V29.6309H2.90448V33.1601H3.6765V31.2117C3.6765 30.5867 4.00736 30.2926 4.52204 30.2926C5.03672 30.2926 5.29406 30.6235 5.29406 31.2117V33.1601H6.06608V31.2117C6.06608 30.5867 6.43371 30.2926 6.91162 30.2926C7.4263 30.2926 7.68364 30.6235 7.68364 31.2117V33.1601H8.52918ZM19.9624 29.6309H18.7125V28.5647H17.9405V29.6309H17.242V30.3294H17.9405V31.9469C17.9405 32.7557 18.2713 33.2336 19.1536 33.2336C19.4845 33.2336 19.8521 33.1233 20.1095 32.9763L19.8889 32.3145C19.6683 32.4616 19.411 32.4984 19.2272 32.4984C18.8595 32.4984 18.7125 32.2778 18.7125 31.9102V30.3294H19.9624V29.6309ZM26.5062 29.5573C26.065 29.5573 25.7709 29.7779 25.5871 30.072V29.6309H24.8151V33.1601H25.5871V31.1749C25.5871 30.5867 25.8445 30.2558 26.3224 30.2558C26.4694 30.2558 26.6532 30.2926 26.8003 30.3294L27.0209 29.5941C26.8738 29.5573 26.6532 29.5573 26.5062 29.5573ZM16.617 29.925C16.2494 29.6676 15.7347 29.5573 15.1832 29.5573C14.3009 29.5573 13.7127 29.9985 13.7127 30.697C13.7127 31.2852 14.1539 31.6161 14.9259 31.7264L15.2935 31.7631C15.6979 31.8366 15.9185 31.9469 15.9185 32.1307C15.9185 32.3881 15.6244 32.5719 15.1097 32.5719C14.595 32.5719 14.1907 32.3881 13.9333 32.2043L13.5657 32.7925C13.9701 33.0866 14.5215 33.2336 15.073 33.2336C16.1023 33.2336 16.6905 32.7557 16.6905 32.094C16.6905 31.469 16.2126 31.1381 15.4773 31.0279L15.1097 30.9911C14.7789 30.9543 14.5215 30.8808 14.5215 30.6602C14.5215 30.4029 14.7789 30.2558 15.1832 30.2558C15.6244 30.2558 16.0656 30.4396 16.2861 30.5499L16.617 29.925ZM37.1306 29.5573C36.6895 29.5573 36.3954 29.7779 36.2116 30.072V29.6309H35.4395V33.1601H36.2116V31.1749C36.2116 30.5867 36.4689 30.2558 36.9468 30.2558C37.0939 30.2558 37.2777 30.2926 37.4247 30.3294L37.6453 29.5941C37.4983 29.5573 37.2777 29.5573 37.1306 29.5573ZM27.2782 31.3955C27.2782 32.4616 28.0135 33.2336 29.1531 33.2336C29.6678 33.2336 30.0354 33.1233 30.403 32.8292L30.0354 32.2043C29.7413 32.4248 29.4472 32.5351 29.1163 32.5351C28.4914 32.5351 28.0502 32.094 28.0502 31.3955C28.0502 30.7337 28.4914 30.2926 29.1163 30.2558C29.4472 30.2558 29.7413 30.3661 30.0354 30.5867L30.403 29.9617C30.0354 29.6676 29.6678 29.5573 29.1531 29.5573C28.0135 29.5573 27.2782 30.3294 27.2782 31.3955ZM34.4102 31.3955V29.6309H33.6382V30.072C33.3808 29.7412 33.0132 29.5573 32.5353 29.5573C31.5427 29.5573 30.7707 30.3294 30.7707 31.3955C30.7707 32.4616 31.5427 33.2336 32.5353 33.2336C33.05 33.2336 33.4176 33.0498 33.6382 32.7189V33.1601H34.4102V31.3955ZM31.5795 31.3955C31.5795 30.7705 31.9838 30.2558 32.6456 30.2558C33.2705 30.2558 33.7117 30.7337 33.7117 31.3955C33.7117 32.0204 33.2705 32.5351 32.6456 32.5351C31.9838 32.4984 31.5795 32.0204 31.5795 31.3955ZM22.352 29.5573C21.3226 29.5573 20.5874 30.2926 20.5874 31.3955C20.5874 32.4984 21.3226 33.2336 22.3888 33.2336C22.9034 33.2336 23.4181 33.0866 23.8225 32.7557L23.4549 32.2043C23.1608 32.4248 22.7932 32.5719 22.4255 32.5719C21.9476 32.5719 21.4697 32.3513 21.3594 31.7264H23.9696C23.9696 31.6161 23.9696 31.5425 23.9696 31.4322C24.0063 30.2926 23.3446 29.5573 22.352 29.5573ZM22.352 30.2191C22.8299 30.2191 23.1608 30.5132 23.2343 31.0646H21.3962C21.4697 30.5867 21.8006 30.2191 22.352 30.2191ZM41.5054 31.3955V28.2339H40.7334V30.072C40.476 29.7412 40.1084 29.5573 39.6305 29.5573C38.6379 29.5573 37.8659 30.3294 37.8659 31.3955C37.8659 32.4616 38.6379 33.2336 39.6305 33.2336C40.1452 33.2336 40.5128 33.0498 40.7334 32.7189V33.1601H41.5054V31.3955ZM38.6747 31.3955C38.6747 30.7705 39.0791 30.2558 39.7408 30.2558C40.3658 30.2558 40.8069 30.7337 40.8069 31.3955C40.8069 32.0204 40.3658 32.5351 39.7408 32.5351C39.0791 32.4984 38.6747 32.0204 38.6747 31.3955ZM12.8672 31.3955V29.6309H12.0952V30.072C11.8378 29.7412 11.4702 29.5573 10.9923 29.5573C9.9997 29.5573 9.22767 30.3294 9.22767 31.3955C9.22767 32.4616 9.9997 33.2336 10.9923 33.2336C11.507 33.2336 11.8746 33.0498 12.0952 32.7189V33.1601H12.8672V31.3955ZM9.99969 31.3955C9.99969 30.7705 10.4041 30.2558 11.0658 30.2558C11.6908 30.2558 12.1319 30.7337 12.1319 31.3955C12.1319 32.0204 11.6908 32.5351 11.0658 32.5351C10.4041 32.4984 9.99969 32.0204 9.99969 31.3955Z" fill="white"/>
<path d="M27.9401 2.83105H16.3599V23.6388H27.9401V2.83105Z" fill="#FF5F00"/>
<path d="M17.0951 13.2346C17.0951 9.00688 19.0803 5.25708 22.1316 2.83074C19.8891 1.06613 17.0584 0 13.9703 0C6.65448 0 0.735672 5.91881 0.735672 13.2346C0.735672 20.5504 6.65448 26.4692 13.9703 26.4692C17.0584 26.4692 19.8891 25.4031 22.1316 23.6385C19.0803 21.2489 17.0951 17.4623 17.0951 13.2346Z" fill="#EB001B"/>
<path d="M43.5642 13.2346C43.5642 20.5504 37.6454 26.4692 30.3296 26.4692C27.2415 26.4692 24.4108 25.4031 22.1683 23.6385C25.2563 21.2121 27.2048 17.4623 27.2048 13.2346C27.2048 9.00688 25.2196 5.25708 22.1683 2.83074C24.4108 1.06613 27.2415 0 30.3296 0C37.6454 0 43.5642 5.95557 43.5642 13.2346Z" fill="#F79E1B"/>
</svg>
