<svg width="67" height="21" viewBox="0 0 67 21" fill="none" xmlns="http://www.w3.org/2000/svg">
<path fill-rule="evenodd" clip-rule="evenodd" d="M19.0018 20.2425L24.882 0.854004H30.1288L24.2482 20.2425H19.0018Z" fill="white"/>
<path fill-rule="evenodd" clip-rule="evenodd" d="M16.6562 0.859375L11.9366 9.07818C10.7352 11.2307 10.0329 12.318 9.69519 13.6783H9.62333C9.70691 11.9538 9.46639 9.83679 9.4437 8.64025L8.92258 0.859375H0.0907615L0 1.38087C2.26903 1.38087 3.61456 2.52068 3.98479 4.85211L5.70623 20.2426H11.1417L22.1321 0.859375H16.6562Z" fill="white"/>
<path fill-rule="evenodd" clip-rule="evenodd" d="M57.4573 20.2424L57.3125 17.3589L50.7611 17.3536L49.4212 20.242H43.7252L54.0534 0.890625H61.0451L62.7941 20.242H57.4573V20.2424ZM56.8557 8.80576C56.7974 7.37286 56.7486 5.42793 56.8462 4.25106H56.7687C56.4495 5.2135 55.0779 8.10387 54.4747 9.52542L52.5226 13.7753H57.1227L56.8557 8.80576Z" fill="white"/>
<path fill-rule="evenodd" clip-rule="evenodd" d="M35.6366 20.7936C31.9324 20.7936 29.4743 19.6187 27.7192 18.5711L30.2185 14.7542C31.794 15.6354 33.031 16.6523 35.8771 16.6523C36.7923 16.6523 37.6741 16.4144 38.1748 15.5473C38.9047 14.2861 38.0066 13.6076 35.9569 12.4474L34.9449 11.7894C31.9067 9.7132 30.5925 7.74142 32.0228 4.2993C32.9379 2.09758 35.3518 0.428711 39.3339 0.428711C42.0802 0.428711 44.6548 1.61655 46.155 2.77716L43.2817 6.14704C41.8178 4.96299 40.6042 4.36396 39.2156 4.36396C38.1083 4.36396 37.2672 4.79092 36.9768 5.36688C36.4303 6.44958 37.1534 7.18777 38.75 8.17896L39.9534 8.94438C43.6421 11.2709 44.5209 13.7105 43.5963 15.9912C42.0065 19.917 38.8934 20.7936 35.6366 20.7936Z" fill="white"/>
<path fill-rule="evenodd" clip-rule="evenodd" d="M64.2295 3.85296H63.8839V1.75108H64.6814C65.1889 1.75108 65.448 1.92883 65.448 2.3554C65.448 2.73584 65.2139 2.89316 64.8992 2.92871L65.4881 3.85296H65.0974L64.5543 2.95443H64.2295V3.85296ZM64.6149 2.65983C64.8743 2.65983 65.1023 2.63449 65.1023 2.32969C65.1023 2.07593 64.8535 2.0453 64.6459 2.0453H64.2291V2.65983H64.6149ZM64.6046 4.66527C63.5136 4.66527 62.7369 3.84805 62.7369 2.76648C62.7369 1.62402 63.5995 0.867676 64.6046 0.867676C65.6004 0.867676 66.463 1.62402 66.463 2.76648C66.463 3.90855 65.6004 4.66527 64.6046 4.66527ZM64.6046 1.19782C63.7825 1.19782 63.143 1.84222 63.143 2.76648C63.143 3.62946 63.7016 4.33513 64.6046 4.33513C65.417 4.33513 66.0568 3.69564 66.0568 2.76648C66.0568 1.84222 65.417 1.19782 64.6046 1.19782Z" fill="white"/>
</svg>
