<svg width="32" height="32" viewBox="0 0 32 32" fill="none" xmlns="http://www.w3.org/2000/svg">
<path d="M23.788 20.8788L24.0227 21.1148L24.26 20.8788C24.5386 20.6003 24.8693 20.3793 25.2333 20.2285C25.5973 20.0777 25.9874 20.0001 26.3813 20.0001C26.7753 20.0001 27.1654 20.0777 27.5294 20.2285C27.8934 20.3793 28.2241 20.6003 28.5027 20.8788C28.7813 21.1574 29.0022 21.4881 29.153 21.8521C29.3038 22.2161 29.3814 22.6062 29.3814 23.0002C29.3814 23.3941 29.3038 23.7842 29.153 24.1482C29.0022 24.5122 28.7813 24.8429 28.5027 25.1215L24.0227 29.6002L19.5453 25.1215C18.9827 24.5589 18.6667 23.7958 18.6667 23.0002C18.6667 22.2045 18.9827 21.4414 19.5453 20.8788C20.108 20.3162 20.871 20.0001 21.6667 20.0001C22.4623 20.0001 23.2254 20.3162 23.788 20.8788V20.8788ZM16 18.6668V29.3335H5.33334C5.33338 26.5623 6.41193 23.8998 8.34064 21.9099C10.2693 19.92 12.8968 18.7588 15.6667 18.6722L16 18.6668ZM16 1.3335C20.42 1.3335 24 4.9135 24 9.3335C24 13.7535 20.42 17.3335 16 17.3335C11.58 17.3335 8.00001 13.7535 8.00001 9.3335C8.00001 4.9135 11.58 1.3335 16 1.3335Z" fill="#109CF1"/>
</svg>
