<svg width="198" height="49" viewBox="0 0 198 49" fill="none" xmlns="http://www.w3.org/2000/svg">
<path d="M66.8747 26.8042L68.7839 22.3219H76.9737L78.8829 26.8042H83.1162L74.8156 7.32551H70.9973L62.6968 26.8042H66.8747ZM72.8788 12.3058L75.701 19.0293H70.0289L72.8788 12.3058Z" fill="#00C2FF"/>
<path d="M95.637 27.1915C98.0719 27.1915 100.064 26.4445 101.613 24.9504C103.191 23.4563 103.965 21.3535 103.965 18.6696V7.43619H99.981V18.808C99.981 21.8792 98.2102 23.4563 95.637 23.4563C93.0915 23.4563 91.3207 21.8792 91.3207 18.808V7.43619H87.3641V18.6696C87.3641 21.3535 88.1389 23.4563 89.6883 24.9504C91.2377 26.4445 93.2299 27.1915 95.637 27.1915Z" fill="#00C2FF"/>
<path d="M108.596 11.0054H114.71V26.8042H118.695V11.0054H124.837V7.43619H108.596V11.0054Z" fill="#00C2FF"/>
<path d="M133.46 21.6578C132.326 20.4681 131.772 18.9463 131.772 17.1202C131.772 15.2941 132.326 13.7723 133.46 12.5825C134.595 11.3928 136.033 10.7841 137.749 10.7841C139.464 10.7841 140.875 11.3928 142.01 12.5825C143.144 13.7723 143.725 15.2941 143.725 17.1202C143.725 18.9463 143.144 20.4681 142.01 21.6578C140.875 22.8476 139.464 23.4563 137.749 23.4563C136.033 23.4563 134.595 22.8476 133.46 21.6578ZM127.705 17.1202C127.705 19.9147 128.646 22.2942 130.555 24.2587C132.464 26.2231 134.871 27.1915 137.749 27.1915C140.626 27.1915 143.006 26.2231 144.915 24.2587C146.824 22.2942 147.792 19.9147 147.792 17.1202C147.792 14.298 146.824 11.9185 144.915 9.98169C143.006 8.01723 140.626 7.04883 137.749 7.04883C134.871 7.04883 132.464 8.01723 130.555 9.98169C128.646 11.9185 127.705 14.298 127.705 17.1202Z" fill="#00C2FF"/>
<path d="M157.311 26.8042V18.4483H165.197V14.9344H157.311V11.0054H167.521V7.43619H153.327V26.8042H157.311Z" fill="#00C2FF"/>
<path d="M176.733 26.8042V7.43619H172.776V26.8042H176.733Z" fill="#00C2FF"/>
<path d="M181.758 11.0054H187.873V26.8042H191.857V11.0054H198V7.43619H181.758V11.0054Z" fill="#00C2FF"/>
<path d="M63.8829 41.5029V37.1451H66.8919V41.5029H67.6389V36.4914H63.1359V41.5029H63.8829Z" fill="white"/>
<path d="M70.8296 37.1451C70.3212 37.6535 70.0722 38.276 70.0722 39.0023C70.0722 39.7286 70.3212 40.3512 70.8296 40.8596C71.338 41.368 71.9813 41.6274 72.7802 41.6274C73.5792 41.6274 74.2225 41.368 74.7309 40.8596C75.2393 40.3512 75.4883 39.7286 75.4883 39.0023C75.4883 38.276 75.2393 37.6535 74.7309 37.1451C74.2225 36.6263 73.5792 36.3669 72.7802 36.3669C71.9813 36.3669 71.338 36.6263 70.8296 37.1451ZM74.7205 39.0023C74.7205 39.5522 74.5337 40.0191 74.1706 40.3927C73.8074 40.7662 73.3405 40.9529 72.7802 40.9529C72.22 40.9529 71.753 40.7662 71.3899 40.3927C71.0267 40.0191 70.84 39.5522 70.84 39.0023C70.84 38.442 71.0267 37.9751 71.3899 37.6016C71.753 37.2281 72.22 37.0413 72.7802 37.0413C73.3405 37.0413 73.8074 37.2281 74.1706 37.6016C74.5337 37.9751 74.7205 38.442 74.7205 39.0023Z" fill="white"/>
<path d="M77.8072 42.9866V41.5029H82.5178V42.9866H83.244V40.8492H82.3102V36.4914H78.5854L78.575 37.1969C78.5646 38.8882 78.2845 40.1125 77.7242 40.8492H77.0913V42.9866H77.8072ZM78.5542 40.8492C79.0419 40.071 79.2805 38.9401 79.2805 37.446V37.1451H81.5632V40.8492H78.5542Z" fill="white"/>
<path d="M87.9592 41.6274C88.6751 41.6274 89.2665 41.3887 89.7542 40.9114C90.2418 40.4342 90.4805 39.822 90.4805 39.0646C90.4805 38.3798 90.2626 37.8195 89.8164 37.3837C89.3703 36.9375 88.8203 36.7197 88.1667 36.7197C87.1706 36.7197 86.3613 37.1658 85.9463 37.8817C85.9774 37.0413 86.1849 36.4291 86.5688 36.0245C86.9527 35.6198 87.5234 35.3397 88.2808 35.1633C88.6647 35.0699 89.2146 34.9558 89.9305 34.8209V34.1257C89.557 34.1984 89.2457 34.2502 89.0071 34.3021C88.7685 34.354 88.4987 34.4163 88.1874 34.4993C87.8865 34.5719 87.6375 34.6549 87.4404 34.7275C87.0565 34.8832 86.5273 35.1322 86.2472 35.4123C85.6142 35.9934 85.2407 36.8857 85.2407 38.3071C85.2407 39.3343 85.4794 40.1436 85.9566 40.7351C86.4339 41.3265 87.098 41.6274 87.9592 41.6274ZM87.9592 40.9529C86.766 40.9529 86.0812 40.1333 86.0085 38.7325C86.1642 38.3694 86.4236 38.0581 86.7867 37.7987C87.1499 37.529 87.5545 37.3941 88.0007 37.3941C88.4883 37.3941 88.893 37.5497 89.225 37.8714C89.557 38.1826 89.723 38.5977 89.723 39.1164C89.723 39.656 89.5466 40.1021 89.2042 40.4445C88.8618 40.7869 88.4468 40.9529 87.9592 40.9529Z" fill="white"/>
<path d="M93.3056 37.1451C92.7972 37.6535 92.5481 38.276 92.5481 39.0023C92.5481 39.7286 92.7972 40.3512 93.3056 40.8596C93.814 41.368 94.4573 41.6274 95.2562 41.6274C96.0551 41.6274 96.6984 41.368 97.2068 40.8596C97.7152 40.3512 97.9642 39.7286 97.9642 39.0023C97.9642 38.276 97.7152 37.6535 97.2068 37.1451C96.6984 36.6263 96.0551 36.3669 95.2562 36.3669C94.4573 36.3669 93.814 36.6263 93.3056 37.1451ZM97.1964 39.0023C97.1964 39.5522 97.0097 40.0191 96.6465 40.3927C96.2834 40.7662 95.8165 40.9529 95.2562 40.9529C94.6959 40.9529 94.229 40.7662 93.8658 40.3927C93.5027 40.0191 93.3159 39.5522 93.3159 39.0023C93.3159 38.442 93.5027 37.9751 93.8658 37.6016C94.229 37.2281 94.6959 37.0413 95.2562 37.0413C95.8165 37.0413 96.2834 37.2281 96.6465 37.6016C97.0097 37.9751 97.1964 38.442 97.1964 39.0023Z" fill="white"/>
<path d="M101.14 40.7039C101.607 41.3161 102.25 41.6274 103.08 41.6274C103.817 41.6274 104.429 41.368 104.896 40.8596C105.363 40.3512 105.602 39.7286 105.602 38.9919C105.602 38.2656 105.363 37.6431 104.896 37.1347C104.429 36.6263 103.817 36.3669 103.08 36.3669C102.25 36.3669 101.607 36.6782 101.14 37.2903V36.4914H100.393V43.578H101.14V40.7039ZM101.14 38.1723C101.441 37.5186 102.147 37.0413 102.904 37.0413C103.454 37.0413 103.921 37.2281 104.284 37.6016C104.647 37.9751 104.834 38.442 104.834 38.9919C104.834 39.5418 104.647 40.0088 104.284 40.3927C103.921 40.7662 103.454 40.9529 102.904 40.9529C102.147 40.9529 101.431 40.486 101.14 39.822V38.1723Z" fill="white"/>
<path d="M113.492 40.9529C112.713 40.9529 112.122 40.6002 112.122 39.9257C112.122 39.3032 112.693 38.9193 113.606 38.9193C114.176 38.9193 114.726 39.0853 115.235 39.4173V40.1125C114.872 40.569 114.207 40.9529 113.492 40.9529ZM113.284 41.6274C114.124 41.6274 114.799 41.3368 115.307 40.7454C115.39 41.285 115.764 41.5444 116.251 41.5444C116.48 41.5444 116.646 41.5029 116.75 41.4302V40.8492C116.667 40.8907 116.573 40.9114 116.459 40.9114C116.168 40.9114 115.982 40.6728 115.982 40.2889V38.2241C115.982 37.0102 115.079 36.3669 113.741 36.3669C113.025 36.3669 112.433 36.5225 111.946 36.8234V37.5497C112.454 37.2073 112.994 37.0413 113.585 37.0413C114.685 37.0413 115.235 37.4563 115.235 38.2968V38.7948C114.685 38.4731 114.083 38.3071 113.429 38.3071C112.838 38.3071 112.35 38.4524 111.956 38.7533C111.572 39.0542 111.375 39.4588 111.375 39.9672C111.375 40.486 111.562 40.8907 111.925 41.1916C112.298 41.4821 112.755 41.6274 113.284 41.6274Z" fill="white"/>
<path d="M121.81 41.5029C122.879 41.5029 123.481 40.9841 123.481 40.154C123.481 39.4796 123.159 39.0542 122.526 38.8674C122.941 38.6703 123.149 38.3071 123.149 37.7676C123.149 37.0102 122.599 36.4914 121.634 36.4914H118.998V41.5029H121.81ZM119.746 39.241H121.655C122.329 39.241 122.723 39.5418 122.723 40.0503C122.723 40.5587 122.329 40.8492 121.655 40.8492H119.746V39.241ZM119.746 37.1451H121.426C122.049 37.1451 122.412 37.3941 122.412 37.8817C122.412 38.3486 122.049 38.6184 121.426 38.6184H119.746V37.1451Z" fill="white"/>
<path d="M127.742 41.5029V37.1451H129.558V36.4914H125.179V37.1451H126.995V41.5029H127.742Z" fill="white"/>
<path d="M132.006 37.1451C131.497 37.6535 131.248 38.276 131.248 39.0023C131.248 39.7286 131.497 40.3512 132.006 40.8596C132.514 41.368 133.157 41.6274 133.956 41.6274C134.755 41.6274 135.399 41.368 135.907 40.8596C136.415 40.3512 136.664 39.7286 136.664 39.0023C136.664 38.276 136.415 37.6535 135.907 37.1451C135.399 36.6263 134.755 36.3669 133.956 36.3669C133.157 36.3669 132.514 36.6263 132.006 37.1451ZM135.897 39.0023C135.897 39.5522 135.71 40.0191 135.347 40.3927C134.984 40.7662 134.517 40.9529 133.956 40.9529C133.396 40.9529 132.929 40.7662 132.566 40.3927C132.203 40.0191 132.016 39.5522 132.016 39.0023C132.016 38.442 132.203 37.9751 132.566 37.6016C132.929 37.2281 133.396 37.0413 133.956 37.0413C134.517 37.0413 134.984 37.2281 135.347 37.6016C135.71 37.9751 135.897 38.442 135.897 39.0023Z" fill="white"/>
<path d="M140.407 41.6274C141.829 41.6274 142.742 41.0048 142.742 40.0814C142.742 39.4485 142.4 39.0334 141.725 38.8155C142.13 38.6392 142.493 38.4005 142.534 37.6846C142.534 37.2903 142.337 36.9687 141.953 36.73C141.57 36.4914 141.092 36.3669 140.511 36.3669C139.806 36.3669 139.204 36.4706 138.716 36.6885V37.3837C139.256 37.1554 139.806 37.0413 140.366 37.0413C141.31 37.0413 141.777 37.3007 141.777 37.8195C141.777 38.2449 141.403 38.5458 140.605 38.5458H139.733V39.1994H140.605C141.435 39.1994 141.964 39.49 141.964 40.0295C141.964 40.6209 141.32 40.9529 140.314 40.9529C139.702 40.9529 139.11 40.8181 138.561 40.5587V41.285C139.069 41.5132 139.681 41.6274 140.407 41.6274Z" fill="white"/>
<path d="M146.98 40.9529C146.201 40.9529 145.61 40.6002 145.61 39.9257C145.61 39.3032 146.181 38.9193 147.094 38.9193C147.664 38.9193 148.214 39.0853 148.723 39.4173V40.1125C148.36 40.569 147.695 40.9529 146.98 40.9529ZM146.772 41.6274C147.612 41.6274 148.287 41.3368 148.795 40.7454C148.878 41.285 149.252 41.5444 149.739 41.5444C149.968 41.5444 150.134 41.5029 150.238 41.4302V40.8492C150.155 40.8907 150.061 40.9114 149.947 40.9114C149.656 40.9114 149.47 40.6728 149.47 40.2889V38.2241C149.47 37.0102 148.567 36.3669 147.229 36.3669C146.513 36.3669 145.921 36.5225 145.434 36.8234V37.5497C145.942 37.2073 146.482 37.0413 147.073 37.0413C148.173 37.0413 148.723 37.4563 148.723 38.2968V38.7948C148.173 38.4731 147.571 38.3071 146.917 38.3071C146.326 38.3071 145.838 38.4524 145.444 38.7533C145.06 39.0542 144.863 39.4588 144.863 39.9672C144.863 40.486 145.05 40.8907 145.413 41.1916C145.786 41.4821 146.243 41.6274 146.772 41.6274Z" fill="white"/>
<path d="M153.233 41.5029V37.1451H156.242V41.5029H156.99V36.4914H152.486V41.5029H153.233Z" fill="white"/>
<path d="M163.864 41.5029V36.4914H163.117V38.8052C162.691 39.0231 162.224 39.1372 161.716 39.1372C160.678 39.1372 160.284 38.7637 160.284 37.6846V36.4914H159.537V37.7468C159.537 39.241 160.191 39.8116 161.571 39.8116C162.12 39.8116 162.629 39.7079 163.117 39.5003V41.5029H163.864Z" fill="white"/>
<path d="M168.361 40.9529C167.583 40.9529 166.992 40.6002 166.992 39.9257C166.992 39.3032 167.562 38.9193 168.475 38.9193C169.046 38.9193 169.596 39.0853 170.104 39.4173V40.1125C169.741 40.569 169.077 40.9529 168.361 40.9529ZM168.154 41.6274C168.994 41.6274 169.669 41.3368 170.177 40.7454C170.26 41.285 170.633 41.5444 171.121 41.5444C171.349 41.5444 171.515 41.5029 171.619 41.4302V40.8492C171.536 40.8907 171.443 40.9114 171.329 40.9114C171.038 40.9114 170.851 40.6728 170.851 40.2889V38.2241C170.851 37.0102 169.949 36.3669 168.61 36.3669C167.894 36.3669 167.303 36.5225 166.815 36.8234V37.5497C167.324 37.2073 167.863 37.0413 168.455 37.0413C169.554 37.0413 170.104 37.4563 170.104 38.2968V38.7948C169.554 38.4731 168.953 38.3071 168.299 38.3071C167.708 38.3071 167.22 38.4524 166.826 38.7533C166.442 39.0542 166.245 39.4588 166.245 39.9672C166.245 40.486 166.431 40.8907 166.794 41.1916C167.168 41.4821 167.625 41.6274 168.154 41.6274Z" fill="white"/>
<path d="M176.171 41.6274C176.784 41.6274 177.323 41.4821 177.79 41.202V40.5172C177.344 40.8077 176.846 40.9529 176.286 40.9529C175.715 40.9529 175.227 40.7662 174.843 40.403C174.459 40.0295 174.273 39.5626 174.273 39.0023C174.273 38.4316 174.459 37.9647 174.843 37.6016C175.227 37.2281 175.715 37.0413 176.286 37.0413C176.773 37.0413 177.24 37.1658 177.697 37.4252V36.73C177.271 36.4914 176.763 36.3669 176.182 36.3669C175.424 36.3669 174.781 36.6159 174.273 37.1243C173.764 37.6223 173.505 38.2449 173.505 38.9919C173.505 39.7494 173.754 40.3719 174.262 40.8803C174.771 41.3783 175.414 41.6274 176.171 41.6274Z" fill="white"/>
<path d="M182.227 41.5029V37.1451H184.042V36.4914H179.664V37.1451H181.479V41.5029H182.227Z" fill="white"/>
<path d="M188.493 41.6274C189.25 41.6274 189.831 41.4717 190.246 41.1501V40.486C189.759 40.7973 189.219 40.9529 188.638 40.9529C187.434 40.9529 186.584 40.2578 186.501 39.1787H190.62V38.9712C190.62 37.8402 189.956 36.3669 188.275 36.3669C187.528 36.3669 186.916 36.6159 186.438 37.1243C185.971 37.6223 185.733 38.2449 185.733 39.0023C185.733 39.7701 185.992 40.403 186.521 40.8907C187.051 41.3783 187.715 41.6274 188.493 41.6274ZM186.511 38.5665C186.542 38.1515 186.719 37.7987 187.019 37.4978C187.331 37.1969 187.735 37.0413 188.244 37.0413C188.773 37.0413 189.167 37.1969 189.427 37.5186C189.696 37.8299 189.842 38.1826 189.862 38.5665H186.511Z" fill="white"/>
<path d="M193.756 41.5029L196.962 37.6016V41.5029H197.709V36.4914H197.014L193.808 40.403V36.4914H193.061V41.5029H193.756ZM195.396 35.6406C196.35 35.6406 197.056 35.018 197.066 34.0635H196.412C196.402 34.6341 195.997 35.0388 195.385 35.0388C194.763 35.0388 194.358 34.6341 194.358 34.0635H193.694C193.704 35.018 194.389 35.6406 195.396 35.6406Z" fill="white"/>
<path fill-rule="evenodd" clip-rule="evenodd" d="M0 24.1978C0 10.8439 10.8494 0 24.21 0C37.5949 0 48.4199 10.8439 48.4199 24.2222C48.4199 37.576 37.5706 48.4199 24.21 48.4199C18.2123 48.4199 12.7267 46.2268 8.50884 42.6203L16.9202 34.2132C18.9681 35.6996 21.4793 36.6013 24.21 36.6013C31.0365 36.6013 36.5953 31.0453 36.5953 24.2222C36.5953 17.399 31.0365 11.843 24.21 11.843C17.3834 11.843 11.8246 17.399 11.8246 24.2222C11.8246 26.927 12.7267 29.437 14.2139 31.4839L5.80259 39.891C2.19426 35.6509 0 30.1924 0 24.1978ZM32.7434 24.1978C32.7434 28.9009 28.9157 32.7268 24.2102 32.7268C19.5048 32.7268 15.6526 28.9009 15.677 24.1978C15.677 19.4947 19.5048 15.6689 24.2102 15.6689C28.9157 15.6689 32.7434 19.4947 32.7434 24.1978Z" fill="#00C2FF"/>
</svg>
