<svg width="73" height="21" viewBox="0 0 73 21" fill="none" xmlns="http://www.w3.org/2000/svg">
<path fill-rule="evenodd" clip-rule="evenodd" d="M6.77318 0.947733C7.42512 0.943833 9.36268 0.769326 10.1834 3.53923C10.7362 5.40506 11.6169 8.46139 12.8253 12.7082H13.3175C14.6134 8.23092 15.5037 5.17459 15.9882 3.53923C16.8175 0.740472 18.8906 0.947788 19.7199 0.947788L26.1178 0.947796V20.85H19.5969V9.1213H19.1596L15.5245 20.85H10.6183L6.98318 9.11261H6.54591V20.85H0.0249481V0.947796L6.77318 0.947733ZM35.4818 0.947796V12.6852H36.002L40.4238 3.03362C41.2821 1.11292 43.1115 0.947796 43.1115 0.947796H49.4219V20.85H42.7647V9.11261H42.2445L37.9094 18.7642C37.0511 20.6762 35.135 20.85 35.135 20.85H28.8247V0.947796H35.4818ZM72.432 10.4055C71.5034 13.0369 68.5872 14.9215 65.3586 14.9215H58.3772V20.85H52.0467V10.4055H72.432Z" fill="#18A26D"/>
<path fill-rule="evenodd" clip-rule="evenodd" d="M65.664 0.947754H51.7149C52.0468 5.37867 55.8626 9.17182 59.8128 9.17182H72.872C73.6256 5.48921 71.0313 0.947754 65.664 0.947754Z" fill="url(#paint0_linear)"/>
<defs>
<linearGradient id="paint0_linear" x1="73.0001" y1="6.12105" x2="51.7149" y2="6.12105" gradientUnits="userSpaceOnUse">
<stop stop-color="#1F5CD7"/>
<stop offset="1" stop-color="#02AEFF"/>
</linearGradient>
</defs>
</svg>
